<?xml version="1.0" encoding="UTF-8" standalone="no"?>
<svg width="48px" height="48px" viewBox="0 0 48 48" version="1.1" xmlns="http://www.w3.org/2000/svg" xmlns:xlink="http://www.w3.org/1999/xlink" xmlns:sketch="http://www.bohemiancoding.com/sketch/ns">
    <!-- Generator: Sketch 3.5.2 (25235) - http://www.bohemiancoding.com/sketch -->
    <title>ic_album_black_24px-2</title>
    <desc>Created with Sketch.</desc>
    <defs></defs>
    <g id="Page-1" stroke="none" stroke-width="1" fill="none" fill-rule="evenodd" sketch:type="MSPage">
        <g id="媒体-菜单-音频源" sketch:type="MSArtboardGroup" transform="translate(-148.000000, -136.000000)">
            <g id="ic_album_black_24px-2" sketch:type="MSLayerGroup" transform="translate(144.000000, 132.000000)">
                <path d="M0,0 L56,0 L56,56 L0,56 L0,0 Z" id="Shape" sketch:type="MSShapeGroup"></path>
                <path d="M28,4.66666667 C15.12,4.66666667 4.66666667,15.12 4.66666667,28 C4.66666667,40.88 15.12,51.3333333 28,51.3333333 C40.88,51.3333333 51.3333333,40.88 51.3333333,28 C51.3333333,15.12 40.88,4.66666667 28,4.66666667 L28,4.66666667 Z M28,38.5 C22.19,38.5 17.5,33.81 17.5,28 C17.5,22.19 22.19,17.5 28,17.5 C33.81,17.5 38.5,22.19 38.5,28 C38.5,33.81 33.81,38.5 28,38.5 L28,38.5 Z M28,25.6666667 C26.7166667,25.6666667 25.6666667,26.7166667 25.6666667,28 C25.6666667,29.2833333 26.7166667,30.3333333 28,30.3333333 C29.2833333,30.3333333 30.3333333,29.2833333 30.3333333,28 C30.3333333,26.7166667 29.2833333,25.6666667 28,25.6666667 L28,25.6666667 Z" id="Shape" fill="#272627" sketch:type="MSShapeGroup"></path>
            </g>
        </g>
    </g>
</svg>