<?xml version="1.0" encoding="utf-8"?>
<!-- Generator: Adobe Illustrator 17.0.0, SVG Export Plug-In . SVG Version: 6.00 Build 0)  -->
<!DOCTYPE svg PUBLIC "-//W3C//DTD SVG 1.1//EN" "http://www.w3.org/Graphics/SVG/1.1/DTD/svg11.dtd">
<svg version="1.1" id="图层_1" xmlns:sketch="http://www.bohemiancoding.com/sketch/ns"
	 xmlns="http://www.w3.org/2000/svg" xmlns:xlink="http://www.w3.org/1999/xlink" x="0px" y="0px" width="56px" height="56px"
	 viewBox="0 0 56 56" enable-background="new 0 0 56 56" xml:space="preserve">
<title>ic_history_black_24px</title>
<desc>Created with Sketch.</desc>
<g id="Page-1" sketch:type="MSPage">
	<g id="媒体-菜单-曲目库-播放列表" transform="translate(-147.000000, -291.000000)" sketch:type="MSArtboardGroup">
		<g id="ic_history_black_24px" transform="translate(145.000000, 284.000000)" sketch:type="MSLayerGroup">
			<path id="Shape" sketch:type="MSShapeGroup" fill="none" d="M2,7h56v56H2V7z"/>
			<path id="Shape_1_" sketch:type="MSShapeGroup" d="M32.333,14c-11.597,0-21,9.403-21,21h-7l9.077,9.077l0.163,0.327L23,35h-7
				c0-9.03,7.303-16.333,16.333-16.333S48.667,25.97,48.667,35s-7.303,16.333-16.333,16.333c-4.503,0-8.587-1.843-11.527-4.807
				l-3.313,3.313c3.803,3.803,9.03,6.16,14.84,6.16c11.597,0,21-9.403,21-21S43.93,14,32.333,14L32.333,14z M30,25.667v11.667
				l9.987,5.927l1.68-2.823L33.5,35.583v-9.917L30,25.667L30,25.667z"/>
		</g>
	</g>
</g>
</svg>
