<?xml version="1.0" encoding="UTF-8" standalone="no"?>
<svg width="48px" height="48px" viewBox="0 0 48 48" version="1.1" xmlns="http://www.w3.org/2000/svg" xmlns:xlink="http://www.w3.org/1999/xlink">
    <!-- Generator: Sketch 40 (33762) - http://www.bohemiancoding.com/sketch -->
    <title>Group 2</title>
    <desc>Created with Sketch.</desc>
    <defs>
        <rect id="path-1" x="4" y="2" width="44" height="44"></rect>
        <mask id="mask-2" maskContentUnits="userSpaceOnUse" maskUnits="objectBoundingBox" x="0" y="0" width="44" height="44" fill="white">
            <use xlink:href="#path-1"></use>
        </mask>
    </defs>
    <g id="Page-1" stroke="none" stroke-width="1" fill="none" fill-rule="evenodd">
        <g id="已配对设备-配置文件-----" transform="translate(-766.000000, -132.000000)">
            <g id="屏幕-3" transform="translate(122.000000, 112.000000)">
                <g id="Group-2" transform="translate(644.000000, 20.000000)">
                    <path d="M38.9993414,11.1495714 L38.9993414,6.76049409 C38.9993414,6.5145427 38.8803745,6.2843352 38.6801207,6.14109393 C38.478973,5.99860238 38.2206704,5.96144493 37.9890872,6.04147636 L17.6954711,13.0136289 C17.3795432,13.1213996 17.1716686,13.4207677 17.1800419,13.7526545 L17.2787812,17.4111404 L17.2787812,32.9882648 C16.1186541,32.8371516 14.8174037,33.0433215 13.6582174,33.5683989 C12.3092674,34.1809111 11.2146685,35.1637795 10.5777793,36.337074 C9.90499776,37.5801383 9.8161842,38.8857096 10.330155,40.0138341 C10.7570528,40.9534068 11.5426389,41.6581332 12.6025215,42.054167 C13.198532,42.2782831 13.8490631,42.3917703 14.533746,42.3917703 C15.4790835,42.3917703 16.4635593,42.169997 17.3856115,41.752784 C19.1275427,40.9635279 20.4414941,39.5362226 20.8814223,37.9787023 C21.0399037,37.7165853 21.0399037,37.355741 21.0399037,37.1553813 L21.0399037,37.0039401 C21.0437611,36.8997306 21.0437611,36.7759818 21.0396685,36.6550912 L21.0327535,36.6550912 C21.0407504,36.0066398 21.0407504,32.9613221 21.0407504,17.7262525 L35.1933887,12.9746909 L35.1933887,26.2347461 C34.0329323,26.0836797 32.7322935,26.2898028 31.5727779,26.8153956 C28.7098578,28.114079 27.2148452,31.0044881 28.2447156,33.2610182 C28.910488,34.7233255 30.5254553,35.6310356 32.4585615,35.6310356 C33.405075,35.6310356 34.3871517,35.4131515 35.2973025,35.000015 C37.14263,34.1636678 38.4836771,32.6458821 38.8530907,31.0008801 C38.9544642,30.7655652 38.9544642,30.4802072 38.9544642,30.2914211 C38.9591213,30.1430725 38.9580864,30.0207762 38.954229,29.9002605 L38.9330605,29.9017599 C38.9554051,29.0858892 38.9554051,25.7845458 38.9554051,11.4101889 C38.9836767,11.3280958 39,11.2408953 39,11.1500868 L38.9993414,11.1495714" id="iconfont-dayinfu" fill="#F50057"></path>
                    <use id="Rectangle" stroke-opacity="0" stroke="#979797" mask="url(#mask-2)" stroke-width="2" xlink:href="#path-1"></use>
                </g>
            </g>
        </g>
    </g>
</svg>